<?xml version="1.0" encoding="UTF-8" standalone="no"?><!DOCTYPE svg PUBLIC "-//W3C//DTD SVG 1.1//EN" "http://www.w3.org/Graphics/SVG/1.1/DTD/svg11.dtd"><svg width="100%" height="100%" viewBox="0 0 684 876" version="1.1" xmlns="http://www.w3.org/2000/svg" xmlns:xlink="http://www.w3.org/1999/xlink" xml:space="preserve" xmlns:serif="http://www.serif.com/" style="fill-rule:evenodd;clip-rule:evenodd;stroke-linejoin:round;stroke-miterlimit:1.5;"><rect id="Artboard1" x="0" y="0" width="684" height="876" style="fill:none;"/><path d="M126.043,533.619l-0,-335.162l214.298,-158.457l212.951,157.46l-0,336.159" style="fill:none;stroke:#574744;stroke-width:1.2px;"/><path d="M441.567,538.657c6.294,-20.825 7.867,-18.985 9.28,-44.036c1.413,-25.055 -4.644,-47.735 -13.006,-68.306c-4.255,-10.468 -11.971,-21.648 -23.95,-17.406c-7.698,2.724 -14.04,11.4 -16.542,19.781c-2.502,8.38 -1.901,16.537 -0.893,24.236c4.738,36.248 24.819,60.297 45.111,85.731" style="fill:#f1e7e5;fill-rule:nonzero;"/><path d="M418.319,357.348c12.184,-19.872 17.946,-45.833 13.197,-71.061c-1.985,-10.54 -7.018,-22.21 -16.033,-25.331c-6.4,-2.215 -13.093,0.741 -17.6,5.727c-4.507,4.985 -7.229,11.74 -9.758,18.411c-10.948,28.889 -20.077,59.686 -21.13,92.354c-0.151,4.67 -1.843,18.592 2.342,21.185c3.623,2.247 15.023,-7.078 17.822,-8.987c12.15,-8.283 23.012,-19.004 31.16,-32.298Z" style="fill:#e8d9d6;fill-rule:nonzero;"/><path d="M298.899,399.202c-9.828,-7.378 -20.383,-14.515 -32.655,-17.207c-12.272,-2.695 -26.705,0.057 -34.265,9.502c-6.335,7.912 -6.637,19.042 -2.88,28.271c3.76,9.228 11.048,16.824 18.945,23.378c20.852,17.31 71.428,45.248 100.54,31.59c30.132,-14.134 -36.34,-65.515 -49.685,-75.534Z" style="fill:#e8d9d6;fill-rule:nonzero;"/><g><path d="M278.86,147.864c16.429,21.356 27.333,49.197 34.586,74.96c9.557,33.972 3.407,70.79 7.405,105.587c8.47,73.713 44.981,141.073 94.013,195.759c27.453,30.615 56.167,58.226 75.534,95.02c0.811,1.54 3.228,0.63 2.551,-1.05c-13.07,-32.433 -39.802,-57.966 -63.322,-82.964c-26.261,-27.911 -49.93,-57.921 -68.298,-91.671c-18.896,-34.717 -32.125,-72.601 -37.4,-111.836c-4.64,-34.541 1.496,-71.349 -7.493,-105.162c-7.255,-27.298 -19.164,-56.907 -36.742,-79.279c-0.416,-0.529 -1.248,0.098 -0.834,0.636" style="fill:#574744;fill-rule:nonzero;"/><path d="M456.784,565.725c-11.202,-23.185 -20.11,-46.268 -23.47,-72.004c-3.302,-25.295 -1.709,-50.843 4.428,-75.578c0.352,-1.427 -1.902,-1.747 -2.256,-0.335c-12.111,48.634 -7.066,105.549 19.957,148.684c0.466,0.747 1.723,0.025 1.341,-0.767" style="fill:#574744;fill-rule:nonzero;"/><path d="M435.937,419.098c-9.278,20.204 -16.82,41.326 -14.619,63.906c2.202,22.556 11.96,44.963 24.676,63.552c0.396,0.578 1.417,0.016 1.084,-0.623c-10.44,-19.765 -21.15,-38.734 -23.753,-61.412c-2.649,-23.108 5.401,-43.901 13.052,-65.233c0.105,-0.287 -0.309,-0.473 -0.44,-0.19" style="fill:#574744;fill-rule:nonzero;"/><path d="M435.816,419.142c-3.669,18.835 -2.05,37.38 0.908,56.187c3.392,21.564 1.048,43.586 5.45,65.011c0.256,1.237 2.216,1.013 1.966,-0.24c-4.066,-20.283 -1.796,-41.043 -4.695,-61.454c-2.865,-20.202 -4.49,-38.947 -2.948,-59.401c0.035,-0.442 -0.596,-0.542 -0.681,-0.103" style="fill:#574744;fill-rule:nonzero;"/><path d="M436.376,417.94c-1.469,6.771 0.358,14.257 1.399,20.981c1.604,10.377 3.556,20.697 5.02,31.1c1.591,11.284 2.071,22.143 1.144,33.522c-1.03,12.613 -3.37,26.121 -0.504,38.634c0.162,0.695 1.123,0.585 1.105,-0.135c-0.679,-23.787 3.491,-47.26 0.249,-70.95c-2.432,-17.762 -5.729,-35.355 -7.936,-53.144c-0.034,-0.278 -0.419,-0.266 -0.477,-0.008" style="fill:#574744;fill-rule:nonzero;"/><path d="M438.042,530.325c-3.72,-4.753 -5.799,-10.665 -8.995,-15.788c-3.861,-6.194 -8.525,-11.899 -11.922,-18.381c-7.228,-13.785 -8.856,-30.728 -11.69,-45.858c-1.391,-7.431 -2.351,-15.011 -3.854,-22.409c-1.736,-8.545 -3.045,-8.342 0.759,-1.67c7.841,13.749 15.538,28.049 18.664,43.708c0.244,1.203 2.15,0.982 1.905,-0.233c-1.89,-9.427 -5.354,-18.166 -9.544,-26.802c-3.391,-6.993 -11.036,-16.571 -12.222,-24.224c-0.161,-1.032 -1.906,-1.171 -1.936,-0.026c-0.303,11.356 2.18,22.694 4.257,33.814c1.997,10.686 3.681,21.622 6.641,32.089c2.467,8.742 6.696,16.05 11.754,23.497c3.54,5.216 6.877,10.349 9.897,15.887c1.654,3.038 2.518,5.14 5.354,7.314c0.589,0.45 1.4,-0.317 0.932,-0.918" style="fill:#574744;fill-rule:nonzero;"/><path d="M272.617,525.039c61.815,27.829 137.842,11.809 193.478,55.524c1.642,1.288 3.635,-1.26 1.997,-2.552c-55.42,-43.707 -132.232,-29.408 -195.273,-53.441c-0.304,-0.118 -0.5,0.335 -0.202,0.469" style="fill:#574744;fill-rule:nonzero;"/><path d="M272.755,525.045c23.236,4.345 47.056,2.167 70.343,6.904c23.927,4.868 46.978,13.175 69.541,22.362c1.217,0.493 2.024,-1.376 0.808,-1.873c-21.639,-8.832 -43.736,-16.896 -66.633,-21.82c-24.486,-5.268 -49.168,-4.26 -73.994,-6.018c-0.284,-0.019 -0.354,0.391 -0.065,0.445" style="fill:#574744;fill-rule:nonzero;"/><path d="M271.192,524.487c15.474,14.896 39.613,21.281 60.301,24.298c25.452,3.715 51.466,-0.626 76.692,3.964c1.372,0.25 1.681,-1.88 0.32,-2.135c-23.508,-4.447 -47.845,-0.396 -71.6,-3.132c-12.077,-1.389 -24.035,-3.892 -35.47,-8.062c-10.747,-3.919 -20.058,-9.849 -29.987,-15.367c-0.27,-0.152 -0.449,0.248 -0.256,0.434" style="fill:#574744;fill-rule:nonzero;"/><path d="M272.388,524.612c26.369,-0.704 52.228,-4.225 78.375,1.57c26.035,5.77 50.228,20.004 74.126,31.386c1.244,0.59 2.08,-1.368 0.844,-1.955c-24.088,-11.444 -48.412,-25.716 -74.676,-31.392c-25.238,-5.45 -53.38,-4.472 -78.76,-0.352c-0.482,0.078 -0.387,0.755 0.091,0.743" style="fill:#574744;fill-rule:nonzero;"/><path d="M423.059,555.767c-18.603,-15.314 -34.375,-33.503 -52.087,-49.754c-16.606,-15.242 -37.065,-25.173 -53.479,-40.774c-0.902,-0.86 -2.294,0.562 -1.535,1.517c6.489,8.189 9.166,18.961 15.581,27.456c6.281,8.315 14.006,15.471 22.262,21.785c19.675,15.041 42.556,25.182 63.04,38.999c1.319,0.89 2.86,-1.057 1.532,-1.958c-19.611,-13.309 -41.399,-23.147 -60.565,-37.117c-9.057,-6.607 -17.594,-14.181 -24.405,-23.127c-6.461,-8.49 -9.139,-19.15 -15.712,-27.359c-0.515,0.508 -1.029,1.015 -1.539,1.518c16.489,15.515 36.873,25.536 53.542,40.689c17.413,15.827 32.523,36.571 52.606,49.096c0.661,0.406 1.383,-0.455 0.759,-0.971" style="fill:#574744;fill-rule:nonzero;"/><path d="M396.268,498.634c-8.138,-11.551 -21.246,-18.753 -33.642,-24.937c-15.833,-7.897 -32.235,-14.624 -48.462,-21.658c-16.198,-7.022 -32.362,-14.334 -47.519,-23.435c-17.051,-10.235 -28.688,-24.104 -39.969,-40.213c-0.682,0.521 -1.365,1.041 -2.044,1.557c17.039,20.083 41.262,29.627 64.42,40.767c27.61,13.283 53.704,28.433 77.75,47.479c1.22,0.964 2.645,-0.884 1.478,-1.886c-20.695,-17.788 -44.883,-31.416 -69.218,-43.529c-24.909,-12.403 -54.668,-21.724 -72.386,-44.388c-1.021,-1.305 -2.991,0.203 -2.044,1.557c9.935,14.274 20.122,27.5 34.787,37.199c13.404,8.864 28.096,15.837 42.717,22.414c32.232,14.501 67.221,25.209 93.539,49.66c0.362,0.335 0.859,-0.213 0.593,-0.587" style="fill:#574744;fill-rule:nonzero;"/><path d="M225.276,388.272c2.751,28.065 27.848,50.933 52.434,61.175c28.359,11.816 59.842,14.268 87.474,28.044c1.264,0.63 2.123,-1.385 0.864,-2.012c-24.628,-12.29 -52.341,-15.683 -78.171,-24.582c-13.471,-4.638 -26.228,-10.893 -36.72,-20.703c-12.836,-12.003 -18.761,-26.264 -25.42,-42.044c-0.108,-0.249 -0.486,-0.149 -0.461,0.122" style="fill:#574744;fill-rule:nonzero;"/><path d="M225.674,387.807c4.283,8.292 15.917,10.985 23.919,14.179c13.636,5.444 27.505,10.334 40.506,17.232c25.673,13.628 47.629,33.006 68.726,52.753c0.947,0.885 2.176,-0.703 1.241,-1.582c-18.754,-17.597 -38.157,-34.809 -60.337,-48.013c-10.986,-6.537 -22.554,-11.708 -34.437,-16.377c-11.593,-4.553 -31.027,-8.37 -38.794,-18.663c-0.315,-0.422 -1.082,-0.023 -0.824,0.471" style="fill:#574744;fill-rule:nonzero;"/><path d="M305.755,427.109c-9.502,-13.028 -13.62,-26.52 -13.911,-42.513c-0.044,-2.295 1.93,-18.801 0.227,-20.623c1.636,1.753 3.827,13.138 5.188,16.37c5.946,14.115 14.051,27.298 21.572,40.607c6.506,11.515 13.102,22.977 20.875,33.695c0.814,1.126 2.537,-0.182 1.719,-1.308c-10.324,-14.199 -18.624,-29.705 -27.311,-44.928c-8.8,-15.426 -16.625,-30.808 -22.097,-47.758c-0.256,-0.792 -1.33,-0.375 -1.316,0.343c0.484,24.25 -3.07,47.034 14.792,66.313c0.142,0.153 0.387,-0.024 0.262,-0.198" style="fill:#574744;fill-rule:nonzero;"/><path d="M449.841,290.709c-22.081,26.032 -48.604,47.55 -66.868,76.79c-15.112,24.191 -23.105,50.796 -22.813,79.369c0.014,1.475 2.245,1.16 2.263,-0.277c0.345,-30.762 9.968,-59.216 27.196,-84.598c17.631,-25.976 41.863,-45.988 61.286,-70.452c0.539,-0.684 -0.503,-1.492 -1.064,-0.832" style="fill:#574744;fill-rule:nonzero;"/><path d="M448.096,293.204c-20.723,12.656 -40.614,27.248 -54.991,47.109c-14.792,20.445 -21.154,44.167 -28.234,68.023c-0.359,1.208 1.451,2.003 1.816,0.783c7.109,-23.712 13.452,-47.084 28.137,-67.462c14.404,-19.98 34.186,-33.441 53.709,-47.88c0.379,-0.282 -0.049,-0.81 -0.437,-0.573" style="fill:#574744;fill-rule:nonzero;"/><path d="M450.194,291.047c-10.911,21.49 -27.883,37.57 -43.298,55.671c-15.046,17.669 -29.143,36.115 -40.514,56.398c-0.568,1.012 1.143,2.044 1.763,1.045c13.084,-20.975 26.517,-40.806 42.617,-59.663c14.523,-17.01 30.342,-32.686 39.791,-53.298c0.103,-0.229 -0.247,-0.375 -0.359,-0.153" style="fill:#574744;fill-rule:nonzero;"/><path d="M449.863,290.904c-7.172,21.05 -21.512,39.085 -35.231,56.318c-14.363,18.038 -33.212,32.174 -45.902,51.658c-0.352,0.542 0.335,1.065 0.778,0.609c8.184,-8.391 15.15,-17.925 23.209,-26.452c8.645,-9.144 17.444,-17.599 25.164,-27.608c12.954,-16.787 26.438,-33.663 33.002,-54.085c0.216,-0.672 -0.79,-1.121 -1.02,-0.44" style="fill:#574744;fill-rule:nonzero;"/><path d="M369.363,398.823c1.2,-19.168 1.721,-37.882 7.534,-56.356c5.193,-16.512 10.987,-33.272 18.747,-48.775c1.945,-3.888 4.03,-7.711 6.215,-11.469c4.276,-7.342 3.681,-6.836 1.815,-1.822c-2.664,7.149 -5.008,14.773 -6.461,22.277c-1.425,7.357 -1.299,14.881 -2.502,22.249c-1.479,9.096 -5.722,17.594 -8.538,26.324c-0.364,1.13 1.339,1.873 1.706,0.735c3.846,-11.875 8.428,-22.193 9.449,-34.751c1.227,-15.026 5.139,-28.993 9.644,-43.353c0.17,-0.542 -0.574,-1.124 -0.937,-0.554c-24.046,37.523 -38.678,80.77 -37.296,125.486c0.013,0.354 0.601,0.363 0.624,0.009" style="fill:#574744;fill-rule:nonzero;"/><path d="M201.084,260.134c13.544,27.871 34.582,47.512 59.478,65.232c12.186,8.676 24.745,16.823 36.773,25.722c12.776,9.458 23.688,20.269 35.28,31.043c1.025,0.95 2.471,-0.599 1.694,-1.672c-16.324,-22.487 -43.34,-37.775 -65.973,-53.073c-27.002,-18.244 -51.022,-38.252 -66.616,-67.516c-0.205,-0.384 -0.833,-0.141 -0.636,0.264" style="fill:#574744;fill-rule:nonzero;"/><path d="M200.3,260.114c5.982,19.605 17.21,37.842 32.921,51.067c16.724,14.079 36.881,23.161 55.902,33.604c1.438,0.791 2.442,-1.563 1.009,-2.339c-17.979,-9.769 -36.902,-18.299 -53.059,-31.036c-17.189,-13.547 -27.614,-31.704 -35.69,-51.742c-0.288,-0.707 -1.301,-0.262 -1.083,0.446" style="fill:#574744;fill-rule:nonzero;"/><path d="M200.293,259.831c7.378,6.916 15.724,12.732 23.431,19.272c8.678,7.368 16.326,15.825 24.194,24.026c13.654,14.238 27.14,28.805 42.414,41.337c1.121,0.918 2.513,-0.86 1.388,-1.774c-32.074,-26.057 -56.124,-60.585 -90.872,-83.57c-0.488,-0.32 -0.979,0.313 -0.555,0.709" style="fill:#574744;fill-rule:nonzero;"/><path d="M200.727,260.007c20.022,11.867 39.81,22.328 55.257,40.293c6.818,7.928 12.264,16.905 18.959,24.937c7.072,8.492 14.849,16.492 22.896,24.065c0.86,0.808 2.308,-0.599 1.483,-1.464c-8.794,-9.199 -18.001,-17.956 -25.915,-27.957c-6.753,-8.539 -12.531,-17.669 -20.111,-25.546c-14.264,-14.828 -32.915,-27.817 -52.343,-34.851c-0.356,-0.126 -0.535,0.34 -0.226,0.523" style="fill:#574744;fill-rule:nonzero;"/><path d="M305.686,356.902c-17.368,-11.031 -35.043,-11.78 -54.825,-15.356c-22.705,-4.109 -44.421,-11.674 -62.906,-25.77c-0.352,0.599 -0.708,1.196 -1.061,1.792c15.047,6.613 31.204,6.24 47.192,8.533c18.747,2.693 36.382,9.579 53.1,18.288c1.197,0.627 2.02,-1.306 0.831,-1.926c-14.888,-7.754 -30.515,-14.123 -47.052,-17.33c-17.804,-3.458 -36.329,-2.058 -53.239,-9.492c-1.087,-0.478 -2.016,1.062 -1.061,1.788c15.232,11.617 32.99,18.781 51.557,23.136c9.787,2.292 19.704,3.69 29.667,4.928c13.772,1.713 24.994,5.407 36.927,12.521c0.763,0.452 1.645,-0.619 0.87,-1.112" style="fill:#574744;fill-rule:nonzero;"/><path d="M408.773,195.202c-13.931,24.268 -33.886,42.166 -51.073,63.831c-15.71,19.799 -27.264,42.698 -36.679,66.051c-0.433,1.073 1.187,1.776 1.649,0.715c10.908,-25.152 23.401,-49.421 40.902,-70.696c16.064,-19.529 33.641,-37.179 45.56,-59.747c0.12,-0.224 -0.238,-0.366 -0.359,-0.154" style="fill:#574744;fill-rule:nonzero;"/><path d="M408.255,194.465c-11.008,14.868 -23.719,27.219 -36.252,40.742c-12.755,13.763 -22.45,29.538 -29.1,47.07c-0.459,1.209 1.386,2.008 1.845,0.796c7.138,-18.884 17.906,-35.501 31.972,-49.954c11.422,-11.733 25.574,-22.887 32.611,-38.016c0.299,-0.647 -0.648,-1.216 -1.076,-0.638" style="fill:#574744;fill-rule:nonzero;"/><path d="M407.867,196.944c-9.359,17.474 -17.641,36.269 -31.854,50.415c-12.164,12.11 -25.041,22.946 -34.795,37.282c-0.767,1.126 0.797,2.38 1.676,1.314c11.99,-14.578 25.748,-26.971 38.353,-40.917c12.165,-13.463 20.214,-31.29 27.282,-47.807c0.183,-0.432 -0.448,-0.688 -0.662,-0.287" style="fill:#574744;fill-rule:nonzero;"/><path d="M407.916,195.455c-15.102,15.627 -36.219,23.194 -49.067,41.317c-5.319,7.509 -9.428,15.874 -12.605,24.489c-3.9,10.578 -5.203,22.262 -10.044,32.414c-0.36,0.756 0.81,1.479 1.279,0.756c5.15,-7.881 5.981,-17.66 8.802,-26.506c3.512,-10.998 8.327,-21.685 15.165,-31.033c12.695,-17.359 33.296,-24.897 46.825,-41.159c0.189,-0.228 -0.159,-0.479 -0.355,-0.278" style="fill:#574744;fill-rule:nonzero;"/><path d="M345.222,266.687c3.2,-10.643 3.541,-20.772 2.79,-31.791c-1.176,-17.323 -0.812,-31.564 8.901,-46.649c1.677,-2.602 3.364,-5.502 5.458,-7.792c1.327,-1.449 0.478,-2.007 -0.097,0.592c-1.534,6.88 -3.085,13.556 -3.791,20.594c-1.369,13.667 0.229,27.351 -2.97,40.829c-0.287,1.222 1.572,1.439 1.898,0.282c2.699,-9.527 2.203,-19.22 2.307,-29.01c0.128,-12.72 1.92,-25.082 5.607,-37.274c0.262,-0.867 -0.82,-1.686 -1.454,-0.862c-9.242,12.043 -17.708,24.211 -18.612,39.847c-0.997,17.26 2.814,33.775 -0.694,51.048c-0.077,0.377 0.545,0.563 0.657,0.186" style="fill:#574744;fill-rule:nonzero;"/><path d="M279.029,147.94c4.703,15.311 14.008,28.788 19.206,43.938c4,11.667 9.635,22.797 11.892,35.005c2.19,11.857 5.163,22.872 8.559,34.469c0.319,1.09 1.952,0.411 1.638,-0.676c-1.982,-6.79 -4.3,-13.489 -5.982,-20.363c-1.621,-6.625 -2.059,-13.438 -3.808,-20.033c-2.648,-9.971 -7.299,-19.339 -10.708,-29.056c-5.319,-15.155 -13.991,-28.771 -20.187,-43.537c-0.168,-0.397 -0.733,-0.146 -0.61,0.253" style="fill:#574744;fill-rule:nonzero;"/><path d="M278.743,147.484c10.287,13.384 21.666,26.434 29.634,41.409c11.445,21.505 13.11,47.861 10.59,71.671c-0.11,1.034 1.459,1.275 1.603,0.241c3.286,-23.675 1.1,-50.254 -10.071,-71.727c-7.817,-15.031 -19.068,-30.301 -31.31,-42.031c-0.263,-0.254 -0.658,0.157 -0.446,0.437" style="fill:#574744;fill-rule:nonzero;"/><path d="M278.944,148.776c3.092,10.567 3.47,21.926 6.177,32.66c2.365,9.395 5.238,18.675 8.497,27.795c7.075,19.812 17.185,38.236 25.209,57.658c0.374,0.913 1.755,0.342 1.413,-0.583c-7.312,-19.736 -17.937,-37.881 -25.046,-57.723c-3.825,-10.683 -7.264,-21.552 -9.843,-32.607c-2.123,-9.089 -2.467,-18.708 -5.852,-27.43c-0.145,-0.366 -0.662,-0.132 -0.555,0.23" style="fill:#574744;fill-rule:nonzero;"/><path d="M282.863,158.31c2.546,13.472 8.582,26.68 12.405,39.875c3.043,10.516 6.004,21.184 10.273,31.283c4.37,10.333 10.332,19.673 13.727,30.439c0.246,0.781 1.577,0.445 1.408,-0.37c-1.98,-9.504 -7.281,-17.575 -11.379,-26.252c-4.938,-10.454 -8.136,-21.635 -11.434,-32.683c-2.297,-7.695 -4.341,-15.352 -7.277,-22.83c-2.524,-6.422 -5.811,-12.825 -7.667,-19.476c-0.008,-0.034 -0.064,-0.02 -0.056,0.014" style="fill:#574744;fill-rule:nonzero;"/><path d="M315.569,256.905c-13.855,-27.342 -48.454,-36.18 -63.536,-62.173c-1.051,-1.736 -2.004,-3.525 -2.854,-5.362c-0.037,-2.516 -0.758,-3.352 -2.162,-2.5c0.272,1.749 4.888,5.484 6.131,6.701c4.456,4.354 9.395,7.984 14.759,11.133c15.085,8.855 27.983,16.74 37.223,32.224c0.642,1.078 2.19,-0.109 1.553,-1.179c-6.393,-10.686 -15.385,-19.736 -26.044,-26.194c-12.809,-7.76 -25.129,-13.516 -34.202,-26.013c-0.567,-0.781 -1.827,-0.051 -1.46,0.836c6.339,15.278 15.423,24.761 28.45,34.784c15.379,11.838 29.255,22.917 41.444,38.142c0.274,0.345 0.912,0.027 0.698,-0.399" style="fill:#574744;fill-rule:nonzero;"/><path d="M293.321,343.352c-1.786,-15.482 -5.488,-32.118 -12.277,-46.266c-2.796,-5.836 -6.566,-10.622 -10.269,-15.869c-5.987,-8.474 -8.783,-17.372 -11.594,-27.22c-0.177,-0.628 -1.23,-0.48 -1.272,0.156c-0.978,15.58 1.956,30.388 9.185,44.281c4.027,7.743 8.258,14.881 11.469,23.029c2.791,7.086 6.825,13.564 11.287,19.707c0.53,0.732 1.555,-0.089 1.097,-0.834c-4.525,-7.326 -8.838,-14.276 -11.87,-22.353c-2.771,-7.371 -6.799,-13.192 -10.492,-20.16c-3.523,-6.66 -6.258,-13.761 -7.918,-21.116c-0.948,-4.187 -1.651,-8.52 -1.843,-12.815c-0.146,-3.284 -1.97,-9.765 0.527,-2.868c2.01,5.566 3.294,11.049 6.409,16.201c3.208,5.307 7.586,9.787 10.848,15.064c9.417,15.222 12.377,33.913 15.761,51.179c0.116,0.601 1.025,0.505 0.952,-0.116" style="fill:#574744;fill-rule:nonzero;"/><path d="M457.927,566.127c-1.948,-18.164 -1.29,-36.427 2.178,-54.375c1.855,-9.598 4.447,-19.05 7.802,-28.232c0.971,-2.655 5.326,-9.543 4.955,-12.169c-0.495,-3.512 -1.888,2.809 -1.948,3.648c-0.576,8.17 0.467,16.393 -0.181,24.603c-0.702,8.939 -2.337,17.709 -4.627,26.371c-3.831,14.502 -9.606,29.736 -7.576,44.964c0.171,1.27 2.051,1.025 1.966,-0.241c-1.111,-16.879 5.037,-32.603 8.839,-48.771c1.963,-8.359 3.177,-16.877 3.595,-25.453c0.446,-9.166 -1.754,-19.359 1.307,-28.103c0.393,-1.123 -1.198,-1.837 -1.706,-0.739c-14.007,30.293 -21.087,65.391 -16.032,98.672c0.139,0.915 1.526,0.749 1.428,-0.175" style="fill:#574744;fill-rule:nonzero;"/></g><g><path d="M42.201,687.893c-1.717,17.169 -0.793,52.43 24.696,53.618l1.188,0c7.132,0 11.754,-3.301 14.792,-9.773c1.188,-2.773 1.848,-2.773 1.98,-5.15c0,-1.849 -1.32,-2.905 -3.169,-2.905l-0.396,-0c-7.528,-0 -3.83,12.282 -13.339,12.282l-0.66,-0c-30.375,-1.321 -17.961,-84.257 0.132,-84.257c0.396,-0 0.66,0.132 0.792,0.132c4.887,0.66 5.547,5.943 9.905,6.075c1.849,-0 2.245,-1.585 2.245,-2.906c0,-6.471 -6.339,-9.244 -11.621,-9.508l-0.925,-0c-19.413,-0 -25.092,29.582 -25.62,42.392Z" style="fill:#574744;fill-rule:nonzero;"/><path d="M117.873,642.199l0,16.772l1.717,32.62c0.793,15.584 0.132,32.62 1.717,48.467c0.264,1.717 2.509,3.566 4.094,3.566c2.113,0 3.962,-1.32 5.679,-1.717c4.622,-1.32 10.565,-1.056 15.055,-2.641c2.245,-0.792 2.641,-2.113 2.641,-3.83c0,-2.641 -2.113,-3.301 -4.49,-3.301c-5.15,-0 -11.886,1.717 -15.847,2.773c-2.642,-29.978 -2.51,-60.221 -3.566,-90.068c-0.528,-1.98 -2.245,-4.622 -4.358,-4.622c-1.189,0 -1.981,0.529 -2.642,1.981Z" style="fill:#574744;fill-rule:nonzero;"/><path d="M176.114,685.912c-0.133,6.339 -0.265,23.376 -0.265,24.168l0,2.377c0,11.49 1.321,29.45 18.093,29.45c14.659,0 18.489,-21.79 20.074,-31.299c0.264,-0.528 0.264,-1.056 0.396,-1.32l0.264,-1.717c3.566,-20.206 5.151,-38.959 6.471,-59.297l0.132,-1.981c0,-1.981 -1.849,-3.962 -4.094,-3.962c-1.716,0 -4.358,0.661 -4.358,2.642l0,2.905c0,23.243 -3.037,47.543 -7.924,70.654c-0.924,4.094 -5.282,16.772 -11.753,16.772c-14.131,0 -9.905,-36.185 -9.641,-45.166c0.264,-13.206 1.849,-26.148 2.113,-39.355l0,-0.792c0.132,-3.434 0.396,-8.452 -4.358,-8.452c-1.189,-0 -2.509,0.792 -3.302,1.585c-1.452,14.263 -1.452,28.525 -1.848,42.788Z" style="fill:#574744;fill-rule:nonzero;"/><path d="M262.615,745.341c3.83,1.453 5.019,1.453 8.585,0.792l3.301,-0.792c12.546,-3.566 22.847,-13.338 22.847,-27.073c0,-17.565 -4.754,-36.186 -21.922,-43.845c6.867,-6.207 7.659,-7.396 7.659,-16.508c0,-13.735 -11.225,-19.017 -23.771,-19.81c-2.245,-0.132 -5.019,1.189 -5.019,3.566c0,3.434 0,4.622 0.793,9.112c2.113,11.886 2.377,91.521 7.527,94.558Zm0.793,-66.296c20.073,0 26.412,19.545 26.412,36.978c0,13.735 -7.263,23.375 -22.054,23.375l-0.793,0c-0.924,-19.017 -2.377,-35.789 -3.433,-55.599c-0,-0.66 -0.132,-4.094 -0.132,-4.754Zm-1.717,-33.412c8.716,-0 13.735,5.15 13.735,13.735c-0,6.074 -3.962,11.753 -10.566,11.753c-0.264,0 -1.848,0 -2.245,-0.132c-0.132,-0.924 -0.66,-6.339 -0.66,-7.528c-0.132,-2.641 -0.264,-15.055 -0.264,-17.828Z" style="fill:#574744;fill-rule:nonzero;"/><path d="M354.4,739.398c0.264,0.793 1.717,3.302 2.641,3.434l0.66,-0c2.51,-0 4.49,-1.849 4.49,-4.094l-1.716,-94.822c-0.264,-2.509 -3.17,-3.434 -5.151,-3.434c-1.981,0 -2.245,2.642 -2.245,4.226c0,15.716 1.057,31.3 1.057,49.392l-0,5.547c-4.226,-0.528 -14.792,-0.264 -19.678,-0.924l-0.132,-56.392c0,-1.188 -4.094,-1.849 -4.754,-1.849c-3.038,0 -3.434,2.245 -3.434,5.019l1.585,93.897c0.264,1.717 1.981,2.641 3.566,2.641c0.792,0 3.301,-0.66 3.301,-1.848l0,-34.205c7.396,-1.056 13.735,-0.528 19.017,0.66c1.057,10.698 1.057,22.187 0.793,32.752Z" style="fill:#574744;fill-rule:nonzero;"/><path d="M399.566,721.834c3.169,12.15 9.244,18.753 20.337,18.753c0.529,-0 1.057,-0.132 1.585,-0.132c29.054,-2.51 25.092,-96.407 -4.226,-96.407c-33.148,0 -19.413,69.862 -17.696,77.786Zm16.904,-70.522l1.056,-0c18.753,-0 17.036,48.995 14.923,59.56c-1.188,6.207 -4.094,21.659 -12.942,22.451c-0.396,0 -0.924,0.132 -1.585,0c-6.603,-0.66 -10.961,-13.206 -12.017,-17.564c-2.51,-9.641 -9.377,-62.598 10.565,-64.447Z" style="fill:#574744;fill-rule:nonzero;"/><path d="M471.804,685.912c-0.132,6.339 -0.264,23.376 -0.264,24.168l0,2.377c0,11.49 1.321,29.45 18.093,29.45c14.659,0 18.489,-21.79 20.074,-31.299c0.264,-0.528 0.264,-1.056 0.396,-1.32l0.264,-1.717c3.566,-20.206 5.151,-38.959 6.471,-59.297l0.132,-1.981c0,-1.981 -1.849,-3.962 -4.094,-3.962c-1.717,0 -4.358,0.661 -4.358,2.642l0,2.905c0,23.243 -3.037,47.543 -7.924,70.654c-0.924,4.094 -5.282,16.772 -11.753,16.772c-14.131,0 -9.905,-36.185 -9.641,-45.166c0.264,-13.206 1.849,-26.148 2.113,-39.355l0,-0.792c0.132,-3.434 0.396,-8.452 -4.358,-8.452c-1.189,-0 -2.509,0.792 -3.302,1.585c-1.452,14.263 -1.452,28.525 -1.849,42.788Z" style="fill:#574744;fill-rule:nonzero;"/><path d="M541.798,731.342c0,0.264 -0.132,0.661 -0.132,0.925c0,5.414 8.056,9.905 12.678,10.697c1.057,0.132 2.113,0.132 3.17,0.132c10.697,-0 15.187,-6.339 17.036,-17.168c2.377,-14.263 -3.698,-25.092 -10.697,-37.242c-4.49,-7.66 -7.924,-11.094 -6.471,-19.546c3.037,-18.489 17.036,-7.527 18.225,-13.999c0.66,-3.697 -1.849,-4.49 -5.415,-4.886c-1.057,-0.132 -1.981,-0.132 -2.905,-0.132c-10.962,0 -15.98,7.131 -17.829,17.565c-1.189,7.395 0.792,12.414 4.49,18.224c7.924,12.414 15.187,23.64 12.81,38.563c-1.188,7.131 -3.169,13.206 -11.753,11.754c-5.283,-0.793 -4.358,-7.264 -9.245,-8.056c-1.849,-0 -3.83,1.585 -3.962,3.169Z" style="fill:#574744;fill-rule:nonzero;"/><path d="M610.736,734.908c0.132,3.83 18.885,2.377 23.771,1.981l0.66,-0c1.717,-0.264 2.51,-1.849 2.51,-3.434c-0,-5.81 -16.773,-2.509 -19.942,-3.301l-0.264,-30.903l16.772,-0c6.075,-0 3.037,-7.66 -1.453,-7.792c-2.245,0 -13.338,0.396 -15.319,-0.132c-0.793,-14.395 -2.113,-24.696 -2.113,-38.695c-0,-0.396 -0,-1.056 0.924,-1.056l14.395,-0c0.925,-0.396 1.585,-2.377 1.585,-3.302c-0,-2.905 -2.377,-4.358 -23.507,-2.641l-0,6.735c-0,18.885 1.848,31.035 1.848,49.92l0,26.149l0.133,6.471Z" style="fill:#574744;fill-rule:nonzero;"/></g><g><path d="M189.601,795.046l2.271,-0l-0,-23.506l9.178,-0l-0,-2.119l-20.589,-0l0,2.119l9.14,-0l-0,23.506Z" style="fill:#574744;fill-rule:nonzero;"/><path d="M233.515,795.485c6.222,0 10.01,-3.95 10.01,-10.54l0,-15.524l-2.27,-0l-0,15.414c-0,5.456 -2.808,8.495 -7.74,8.495c-4.931,-0 -7.739,-3.039 -7.739,-8.495l0,-15.414l-2.27,-0l-0,15.524c-0,6.59 3.788,10.54 10.009,10.54Z" style="fill:#574744;fill-rule:nonzero;"/><path d="M275.121,795.046l2.271,-0l0,-23.506l9.178,-0l-0,-2.119l-20.589,-0l0,2.119l9.14,-0l0,23.506Z" style="fill:#574744;fill-rule:nonzero;"/><path d="M319.263,795.522c8.118,-0 13.689,-5.452 13.689,-13.289c-0,-7.837 -5.571,-13.288 -13.689,-13.288c-8.079,-0 -13.688,5.451 -13.688,13.288c-0,7.837 5.609,13.289 13.688,13.289Zm-11.342,-13.289c0,-6.592 4.628,-11.059 11.342,-11.059c6.752,-0 11.38,4.467 11.38,11.059c0,6.555 -4.628,11.06 -11.38,11.06c-6.714,-0 -11.342,-4.505 -11.342,-11.06Z" style="fill:#574744;fill-rule:nonzero;"/><path d="M356.735,795.046l2.309,-0l0,-9.63l6.867,0l7.132,9.63l2.764,-0l-7.203,-9.813c4.173,-0.695 6.786,-3.588 6.786,-7.835c-0,-4.87 -3.485,-7.977 -8.834,-7.977l-9.821,-0l0,25.625Zm2.309,-11.753l0,-11.753l7.284,-0c4.211,-0 6.715,2.233 6.715,5.858c0,3.661 -2.504,5.895 -6.715,5.895l-7.284,-0Z" style="fill:#574744;fill-rule:nonzero;"/><rect x="399.742" y="769.421" width="2.309" height="25.625" style="fill:#574744;fill-rule:nonzero;"/><path d="M427.693,795.046l2.27,-0l0,-21.818l16.161,21.818l2.157,-0l0,-25.625l-2.271,-0l0,21.781l-16.16,-21.781l-2.157,-0l-0,25.625Z" style="fill:#574744;fill-rule:nonzero;"/><path d="M485.485,795.522c8.078,-0 13.464,-5.818 13.388,-13.948l-14.222,-0l-0,2.124l11.757,0c-0.493,5.603 -4.703,9.595 -10.885,9.595c-6.558,-0 -11.112,-4.505 -11.112,-11.06c0,-6.555 4.516,-11.059 11.112,-11.059c4.741,-0 8.382,2.343 10.05,6.152l2.503,-0c-1.706,-4.981 -6.523,-8.381 -12.667,-8.381c-7.772,-0 -13.344,5.524 -13.344,13.288c-0,7.764 5.572,13.289 13.42,13.289Z" style="fill:#574744;fill-rule:nonzero;"/></g></svg>